<svg width="336" height="315" viewBox="0 0 336 315" xmlns="http://www.w3.org/2000/svg"><title>icon-stage@3x</title><defs><linearGradient x1="13.647%" y1="36.583%" y2="100%" id="a"><stop stop-color="#D1D1D1" stop-opacity="0" offset="0%"/><stop stop-color="#CAD0D2" offset="100%"/></linearGradient><filter x="-50%" y="-50%" width="200%" height="200%" filterUnits="objectBoundingBox" id="b"><feGaussianBlur stdDeviation="2.254" in="SourceGraphic" result="blur"/></filter></defs><g fill="none" fill-rule="evenodd"><path d="M188.893 292.04L95.75 259.533l11.097-53.314 72.54 34.614 9.506 51.205z" fill="url(#a)" filter="url(#b)" transform="translate(16 -3.176)"/><path d="M54.868 169.234c19.664-9.322 42.944-.875 51.997 18.866 9.053 19.742.45 43.302-19.213 52.624-10.86 5.148-22.824 4.877-32.885.275l-14.29 6.265 2.262-14.877a38.975 38.975 0 0 1-7.085-10.53c-9.053-19.742-.45-43.302 19.213-52.624z" fill="#91D71E"/><path d="M258.238 197.323c-34.63 10.53-71.137-8.374-81.543-42.223-10.406-33.85 9.23-69.825 43.86-80.355 34.628-10.53 71.136 8.374 81.542 42.223 5.747 18.696 2.33 38.04-7.715 53.387l7.883 23.618-24.995-5.923a66.682 66.682 0 0 1-19.032 9.273z" fill="#00B3EF"/><path d="M220.537 105.665a45.957 45.957 0 0 1-14.77-2.372c-24.294-8.087-37.71-34.45-29.964-58.88 7.746-24.434 33.72-37.684 58.014-29.598 24.294 8.087 37.71 34.45 29.964 58.88-4.277 13.496-14.115 23.58-26.16 28.54l-5.044 17.306-12.04-13.875z" fill="#FFCF1A"/><path d="M138.275 256.926c-57.706-17.394-89.93-78.45-71.972-136.372 17.957-57.922 79.293-90.776 137-73.38 57.705 17.393 89.928 78.448 71.97 136.37-9.916 31.99-33.067 56.335-61.53 68.79l-10.334 38.64-30.094-29.45a108.81 108.81 0 0 1-35.04-4.598z" fill="#F92D3B"/><path d="M246.806 71.327c-8.44-.81-17.195-.016-25.835 2.612-34.628 10.532-54.267 46.51-43.864 80.36 10.403 33.848 46.908 52.75 81.537 42.217a67.01 67.01 0 0 0 14.437-6.315c.944-2.43 1.81-4.91 2.592-7.437 12.745-41.153.17-83.893-28.866-111.438z" fill="#DD1B29"/><path d="M62.192 166.604C80 162.14 98.916 170.767 106.865 188.1c7.355 16.04 3.056 34.602-9.363 46-19.47-17.413-32.055-41.457-35.31-67.496z" fill="#BA2626"/><path d="M177.136 42.617c-.218.6-.424 1.208-.62 1.823-7.748 24.435 5.662 50.797 29.954 58.88a45.94 45.94 0 0 0 14.768 2.37l12.035 13.876 5.047-17.308a45.582 45.582 0 0 0 20.59-16.893c-13.32-17.618-32.138-31.308-54.93-38.184a108.99 108.99 0 0 0-26.844-4.563z" fill="#D32A11"/><path d="M189.82 94.365c7.81-8.77 18.117-15.6 30.27-19.298 8.64-2.627 17.395-3.423 25.834-2.612a107.92 107.92 0 0 1 11.86 13.276 45.584 45.584 0 0 1-20.346 16.528l-5.047 17.308-12.034-13.875a45.94 45.94 0 0 1-14.768-2.37 46.54 46.54 0 0 1-15.767-8.955z" fill="#B2220D"/><path d="M247.522 72.76a66.076 66.076 0 0 1 16.608 3.802 46.058 46.058 0 0 1-4.798 9.407 107.92 107.92 0 0 0-11.81-13.21z" fill="#4E8F08"/><path d="M133.72 95.63h52.062l29.005 27.493v84.637H133.72V95.63z" stroke="#FFF" stroke-width="3"/><path d="M157.78 166.182l13.36 10.43 18.12-39.363" stroke="#FFF" stroke-width="4" stroke-linecap="square" opacity=".9"/><path d="M184.17 97.434v27.432h28.17" stroke="#FFF" stroke-width="3" stroke-linecap="square"/></g></svg>